<?xml version="1.0" encoding="utf-8"?>
<!-- Generator: Adobe Illustrator 28.2.0, SVG Export Plug-In . SVG Version: 6.00 Build 0)  -->
<svg version="1.1" id="Layer_1" xmlns="http://www.w3.org/2000/svg" xmlns:xlink="http://www.w3.org/1999/xlink" x="0px" y="0px"
	 width="18.7px" height="16.5px" viewBox="0 0 18.7 16.5" style="enable-background:new 0 0 18.7 16.5;" xml:space="preserve">
<style type="text/css">
	.st0{fill:#3FB654;}
</style>
<g>
	<path class="st0" d="M14.2,3.7c-0.4,0-0.6,0.3-0.6,0.6S13.9,5,14.2,5c1.8,0,3.2,1.4,3.2,3.2V12c0,1.8-1.4,3.2-3.2,3.2H4.5
		c-1.8,0-3.2-1.4-3.2-3.2V8.2C1.3,6.5,2.7,5,4.5,5c0.4,0,0.6-0.3,0.6-0.6S4.8,3.7,4.5,3.7C2,3.7,0,5.7,0,8.2V12c0,2.5,2,4.5,4.5,4.5
		h9.7c2.5,0,4.5-2,4.5-4.5V8.2C18.7,5.7,16.7,3.7,14.2,3.7z"/>
	<path class="st0" d="M6.9,4l1.8-1.8v8.5c0,0.4,0.3,0.6,0.6,0.6s0.6-0.3,0.6-0.6V2.2L11.8,4c0.1,0.1,0.3,0.2,0.5,0.2
		s0.3-0.1,0.5-0.2c0.3-0.3,0.3-0.7,0-0.9L9.8,0.2c-0.2-0.2-0.7-0.2-0.9,0L6,3.1C5.7,3.3,5.7,3.8,6,4C6.2,4.3,6.7,4.3,6.9,4z"/>
</g>
</svg>
